HIERARCHY
ROOT Hips
{
	OFFSET -0.001795 -0.223333 0.028219
	CHANNELS 6 Xposition Yposition Zposition Zrotation Yrotation Xrotation 
	JOINT LeftUpLeg
	{
		OFFSET 0.069520 -0.091406 -0.006815
		CHANNELS 3 Zrotation Yrotation Xrotation
		JOINT LeftLeg
		{
			OFFSET 0.034277 -0.375199 -0.004496
			CHANNELS 3 Zrotation Yrotation Xrotation
			JOINT LeftFoot
			{
				OFFSET -0.013596 -0.397961 -0.043693
				CHANNELS 3 Zrotation Yrotation Xrotation
				JOINT LeftToe
				{
					OFFSET 0.026358 -0.055791 0.119288
					CHANNELS 3 Zrotation Yrotation Xrotation
					End Site
					{
						OFFSET 0.000000 0.000000 0.000000
					}
				}
			}
		}
	}
	JOINT RightUpLeg
	{
		OFFSET -0.067670 -0.090522 -0.004320
		CHANNELS 3 Zrotation Yrotation Xrotation
		JOINT RightLeg
		{
			OFFSET -0.038290 -0.382569 -0.008850
			CHANNELS 3 Zrotation Yrotation Xrotation
			JOINT RightFoot
			{
				OFFSET 0.015774 -0.398415 -0.042312
				CHANNELS 3 Zrotation Yrotation Xrotation
				JOINT RightToe
				{
					OFFSET -0.025372 -0.048144 0.123348
					CHANNELS 3 Zrotation Yrotation Xrotation
					End Site
					{
						OFFSET 0.000000 0.000000 0.000000
					}
				}
			}
		}
	}
	JOINT Spine
	{
		OFFSET -0.002533 0.108963 -0.026696
		CHANNELS 3 Zrotation Yrotation Xrotation
		JOINT Spine1
		{
			OFFSET 0.005487 0.135180 0.001092
			CHANNELS 3 Zrotation Yrotation Xrotation
			JOINT Spine2
			{
				OFFSET 0.001457 0.052922 0.025425
				CHANNELS 3 Zrotation Yrotation Xrotation
				JOINT Neck
				{
					OFFSET -0.002778 0.213870 -0.042857
					CHANNELS 3 Zrotation Yrotation Xrotation
					JOINT Head
					{
						OFFSET 0.005152 0.064970 0.051349
						CHANNELS 3 Zrotation Yrotation Xrotation
						End Site
						{
							OFFSET 0.000000 0.000000 0.000000
						}
					}
				}
				JOINT LeftShoulder
				{
					OFFSET 0.078845 0.121749 -0.034090
					CHANNELS 3 Zrotation Yrotation Xrotation
					JOINT LeftArm
					{
						OFFSET 0.090977 0.030469 -0.008868
						CHANNELS 3 Zrotation Yrotation Xrotation
						JOINT LeftForeArm
						{
							OFFSET 0.259612 -0.012772 -0.027456
							CHANNELS 3 Zrotation Yrotation Xrotation
							JOINT LeftHand
							{
								OFFSET 0.249234 0.008986 -0.001171
								CHANNELS 3 Zrotation Yrotation Xrotation
								End Site
								{
									OFFSET 0.000000 0.000000 0.000000
								}
							}
						}
					}
				}
				JOINT RightShoulder
				{
					OFFSET -0.081759 0.118833 -0.038615
					CHANNELS 3 Zrotation Yrotation Xrotation
					JOINT RightArm
					{
						OFFSET -0.096012 0.032551 -0.009143
						CHANNELS 3 Zrotation Yrotation Xrotation
						JOINT RightForeArm
						{
							OFFSET -0.253742 -0.013329 -0.021401
							CHANNELS 3 Zrotation Yrotation Xrotation
							JOINT RightHand
							{
								OFFSET -0.255298 0.007772 -0.005559
								CHANNELS 3 Zrotation Yrotation Xrotation
								End Site
								{
									OFFSET 0.000000 0.000000 0.000000
								}
							}
						}
					}
				}
			}
		}
	}
}
MOTION
Frames: 10
Frame Time: 0.050000
0.000000 0.955452 0.000000 -2.487385 -3.268838 2.533579 9.838345 -0.057636 4.053140 -2.901649 0.392516 -6.168472 4.912850 12.662677 15.145421 0.000000 0.000000 0.000000 -4.069046 -0.023439 2.741880 2.945551 -0.340370 -3.943166 -4.209844 -13.811513 15.721788 0.000000 0.000000 0.000000 -3.446401 0.063117 0.071055 5.148281 -0.975013 -20.069976 0.038149 0.531763 27.752773 -0.981326 1.814934 -23.465868 0.000000 0.000000 0.000000 -19.199788 1.544546 -1.503235 -53.645362 -12.848494 -3.199711 -12.633970 -27.204752 4.654028 0.000000 0.000000 0.000000 11.331733 5.705612 1.882314 62.354194 6.210550 -5.510144 6.585402 25.665895 2.525133 0.000000 0.000000 0.000000 
0.000138 0.954869 0.001387 -2.755904 -4.189414 3.112482 9.844272 -0.042088 4.166800 -2.778432 0.403401 -7.105700 5.384448 13.183231 14.286893 0.000000 0.000000 0.000000 -3.679711 0.019100 1.919194 2.700034 -0.313719 -3.630247 -3.618078 -12.871108 15.373005 0.000000 0.000000 0.000000 -3.282493 0.090914 -1.411206 4.805526 -0.967441 -19.090819 0.937359 0.967355 28.104504 -1.809675 2.332424 -24.223664 0.000000 0.000000 0.000000 -19.830887 2.213299 -1.890486 -53.480712 -12.921360 -3.216738 -13.616911 -27.585279 4.990538 0.000000 0.000000 0.000000 10.354327 5.937992 1.989700 63.509773 6.623498 -5.428376 5.033898 26.951607 2.343413 0.000000 0.000000 0.000000 
0.000334 0.954358 0.002527 -2.362943 -3.719916 3.244095 9.403511 -0.052622 3.342360 -3.443144 0.426730 -5.727306 5.166413 12.740730 12.992883 0.000000 0.000000 0.000000 -3.815647 0.021573 1.961128 2.143741 -0.288953 -4.052636 -3.359437 -12.415746 15.579566 0.000000 0.000000 0.000000 -3.327654 0.097704 -1.803087 5.423510 -1.094345 -19.552760 0.088216 1.021345 28.556849 -0.351848 1.456995 -23.254024 0.000000 0.000000 0.000000 -20.298598 2.714878 -2.284445 -53.622425 -12.739604 -3.358003 -13.224179 -26.682949 4.711853 0.000000 0.000000 0.000000 10.969666 6.328105 2.214971 62.890123 6.433434 -5.497601 4.234445 26.395693 2.114891 0.000000 0.000000 0.000000 
0.000489 0.954026 0.003508 -2.313528 -4.324752 3.493780 9.447154 -0.039155 3.591985 -3.944570 0.466832 -5.961218 5.590485 13.341752 12.873541 0.000000 0.000000 0.000000 -4.116828 0.053600 1.862376 2.411285 -0.295606 -3.717242 -3.437280 -12.652481 15.762720 0.000000 0.000000 0.000000 -3.641261 0.116194 -2.644220 5.708163 -1.166509 -19.722000 0.191914 0.502852 29.099367 -0.884378 1.622962 -22.943799 0.000000 0.000000 0.000000 -20.808312 3.825688 -2.722473 -53.758137 -12.553203 -3.520846 -13.601494 -25.764544 4.682661 0.000000 0.000000 0.000000 10.275189 6.937891 2.370042 62.960536 6.971225 -5.342635 4.375294 25.647599 2.030942 0.000000 0.000000 0.000000 
0.000630 0.954301 0.004316 -1.920597 -3.956458 3.292094 9.092679 -0.034144 3.451844 -4.093624 0.473420 -5.634839 5.241471 12.865410 13.218523 0.000000 0.000000 0.000000 -4.486313 0.053978 2.141574 1.974004 -0.272736 -3.826934 -3.430524 -12.617321 15.881639 0.000000 0.000000 0.000000 -3.471571 0.112480 -2.687320 5.849164 -1.223091 -19.438255 -0.275761 0.392525 28.684045 -0.710945 1.526273 -22.705614 0.000000 0.000000 0.000000 -21.005649 3.735953 -2.740086 -54.227817 -12.374192 -3.549981 -12.784357 -24.836191 4.290052 0.000000 0.000000 0.000000 10.487892 6.718248 2.277756 62.945975 7.113313 -5.210478 4.475664 25.055604 1.994369 0.000000 0.000000 0.000000 
0.000795 0.954709 0.004832 -1.679275 -3.855813 3.280452 9.075809 -0.034621 3.519244 -4.369839 0.491601 -5.701808 5.282406 12.966967 13.467585 0.000000 0.000000 0.000000 -4.724890 0.057339 2.324573 1.722017 -0.257228 -3.811931 -3.269832 -12.406968 16.257636 0.000000 0.000000 0.000000 -3.727236 0.114895 -2.951354 6.064205 -1.239318 -19.923008 -0.304275 0.189139 29.318013 -0.670203 1.467018 -22.638725 0.000000 0.000000 0.000000 -21.324278 4.168152 -2.960852 -54.831935 -12.704277 -3.480847 -11.631534 -23.584727 3.824532 0.000000 0.000000 0.000000 10.131984 6.706524 2.266805 62.986209 7.598564 -5.035515 4.291982 23.964704 1.853106 0.000000 0.000000 0.000000 
0.000843 0.954916 0.005091 -1.532853 -3.522135 3.223321 9.113421 -0.045655 3.409065 -4.644680 0.507646 -5.510525 5.234694 12.965791 13.835326 0.000000 0.000000 0.000000 -4.738006 0.048769 2.410422 1.556257 -0.242104 -3.557847 -3.237094 -12.274801 16.070979 0.000000 0.000000 0.000000 -3.804240 0.110396 -2.773888 6.154023 -1.249251 -20.038759 -0.369494 -0.042565 29.294471 -0.303183 1.242070 -22.950582 0.000000 0.000000 0.000000 -21.238151 4.367481 -3.068250 -55.031213 -12.639571 -3.500911 -11.314237 -23.177105 3.685316 0.000000 0.000000 0.000000 10.092695 6.780161 2.297878 62.909430 8.002343 -4.814055 3.924045 23.087109 1.701427 0.000000 0.000000 0.000000 
0.000809 0.954914 0.005202 -1.544511 -3.310258 3.067646 9.078820 -0.044651 3.545558 -4.484802 0.494398 -5.477957 4.994357 12.615730 13.831753 0.000000 0.000000 0.000000 -4.647799 0.015257 2.830833 1.393200 -0.232855 -3.576633 -3.310210 -12.372424 16.081051 0.000000 0.000000 0.000000 -3.910547 0.103005 -2.361641 6.399247 -1.286927 -20.346521 -0.368269 0.203170 29.339113 -0.115922 1.166017 -22.513042 0.000000 0.000000 0.000000 -21.140211 4.304483 -3.124002 -54.585677 -12.831905 -3.402329 -11.376204 -22.668283 3.582910 0.000000 0.000000 0.000000 10.299504 6.681229 2.308723 62.647584 8.449190 -4.543185 3.255181 21.565346 1.460991 0.000000 0.000000 0.000000 
0.000703 0.954711 0.005305 -1.533580 -3.194309 3.077586 9.148592 -0.049671 3.620104 -4.403896 0.486867 -5.742246 4.807127 12.346616 13.904522 0.000000 0.000000 0.000000 -4.695235 0.007352 3.002503 1.387711 -0.238059 -3.776402 -3.316115 -12.372758 16.117431 0.000000 0.000000 0.000000 -3.914058 0.101676 -2.254374 6.343658 -1.266605 -20.386669 -0.217731 0.272415 29.296641 -0.131180 1.184677 -22.231658 0.000000 0.000000 0.000000 -21.029945 4.292266 -3.145427 -54.174199 -13.290435 -3.182922 -10.765495 -22.058798 3.340054 0.000000 0.000000 0.000000 10.267733 6.693258 2.335388 62.117585 8.676478 -4.389760 2.460771 20.230267 1.224055 0.000000 0.000000 0.000000 
0.000602 0.954645 0.005466 -1.556985 -3.186123 3.007612 9.160444 -0.046542 3.764781 -4.228634 0.475039 -5.949993 4.506702 11.876485 13.851822 0.000000 0.000000 0.000000 -4.614187 -0.017563 3.336819 1.339214 -0.244023 -4.122737 -3.442002 -12.647765 16.491028 0.000000 0.000000 0.000000 -3.995140 0.098821 -2.028065 6.548149 -1.314810 -20.469459 -0.198319 0.627447 29.205444 -0.158638 1.238306 -21.692364 0.000000 0.000000 0.000000 -21.023152 4.112535 -3.144153 -52.480965 -13.557204 -3.030012 -10.239849 -21.740491 3.144669 0.000000 0.000000 0.000000 10.204162 6.846987 2.454356 60.956587 8.589436 -4.358621 1.489938 18.395128 0.949747 0.000000 0.000000 0.000000 
